# xmcd CD database file
# Copyright (C) 1995-1998 Ti Kan
#
# Track frame offsets:
#	150
#	14285
#	29015
#	47450
#	58862
#	70467
#	81195
#	100120
#	118407
#	130610
#	143612
#	156277
#	170797
#	189492
#	203560
#	220265
#	231910
#	249977
#	267307
#	281867
#
# Disc length: 3927 seconds
#
# Revision: 1
# Processed by: cddbd v1.4b41PL1 Copyright (c) Steve Scherf et al.
# Submitted via: CDex 1.30
#
DISCID=2b0f5514
DTITLE=Anne Murray - The Signature Series, Volume 5 (Together/Keeping In Tou
DTITLE=ch)
DYEAR=1975
DGENRE=Country
TTITLE0=If It's All Right With You
TTITLE1=Sunday Sunrise
TTITLE2=Out On The Road
TTITLE3=Part Time Love
TTITLE4=The Call (1975)
TTITLE5=Everything Old Is New Again
TTITLE6=Lady Bug
TTITLE7=Player In The Band
TTITLE8=Blue Finger Lou
TTITLE9=Together
TTITLE10=Things
TTITLE11=Caress Me Pretty Music
TTITLE12=Dancin' All Night Long
TTITLE13=Sweet Music Man
TTITLE14=Sunday School To Broadway
TTITLE15=Shine
TTITLE16=Lay Me Down
TTITLE17=Golden Oldie
TTITLE18=A Million More
TTITLE19=Carolina Sun
EXTD=\nYEAR: 1975/76  ID3G:   2
EXTT0=
EXTT1=
EXTT2=
EXTT3=
EXTT4=
EXTT5=
EXTT6=
EXTT7=
EXTT8=
EXTT9=
EXTT10=
EXTT11=
EXTT12=
EXTT13=
EXTT14=
EXTT15=
EXTT16=
EXTT17=
EXTT18=
EXTT19=
PLAYORDER=
